<?xml version="1.0" standalone="no"?>
<!DOCTYPE svg PUBLIC "-//W3C//DTD SVG 20010904//EN"
 "http://www.w3.org/TR/2001/REC-SVG-20010904/DTD/svg10.dtd">
<svg version="1.0" xmlns="http://www.w3.org/2000/svg"
 width="1024.000000pt" height="1024.000000pt" viewBox="0 0 1024.000000 1024.000000"
 preserveAspectRatio="xMidYMid meet">

<g transform="translate(0.000000,1024.000000) scale(0.100000,-0.100000)"
fill="#000000" stroke="none">
<path d="M4565 9186 c-114 -30 -184 -61 -278 -125 -79 -53 -110 -87 -146 -158
l-21 -43 -93 0 c-132 0 -201 -22 -323 -102 -97 -64 -156 -124 -232 -234 -14
-20 -33 -34 -54 -38 -18 -4 -50 -18 -70 -31 -21 -14 -48 -25 -61 -25 -75 0
-264 -87 -338 -157 -26 -25 -69 -75 -93 -112 -51 -74 -133 -269 -142 -336 -6
-41 -8 -43 -58 -58 -187 -55 -224 -69 -272 -102 -29 -20 -60 -48 -70 -63 -9
-14 -45 -56 -78 -93 -34 -37 -77 -87 -97 -111 -74 -89 -181 -337 -201 -464
l-11 -72 -41 17 c-199 84 -673 214 -851 234 -237 27 -280 29 -462 24 -109 -3
-207 -8 -218 -10 -132 -24 -185 -39 -185 -52 0 -5 7 -44 16 -85 16 -77 48
-280 63 -405 29 -231 112 -701 162 -915 71 -305 92 -388 144 -570 112 -397
295 -909 423 -1190 16 -36 47 -103 67 -150 90 -202 274 -553 404 -770 302
-501 714 -1019 1011 -1270 303 -255 626 -386 1005 -405 163 -9 326 5 650 55
403 63 498 73 670 72 126 0 181 -5 259 -22 104 -23 284 -88 351 -127 22 -13
65 -36 95 -52 72 -38 79 -46 140 -176 75 -159 293 -596 343 -690 24 -44 69
-128 100 -186 31 -58 66 -114 78 -125 32 -28 100 -26 133 5 31 29 50 92 42
139 -3 19 -45 109 -95 201 -82 152 -381 745 -381 755 0 2 -32 69 -71 148 l-71
143 8 160 c11 211 9 503 -5 607 -5 46 -13 110 -17 143 l-6 60 44 -43 c25 -23
61 -47 81 -53 20 -5 58 -24 84 -42 60 -40 90 -52 173 -67 102 -18 223 -50 247
-66 31 -20 103 -17 176 5 104 33 155 40 347 46 102 4 230 11 286 16 136 13
221 0 314 -47 l73 -37 81 12 c44 6 142 20 216 30 74 10 167 26 205 35 120 29
329 98 357 119 14 11 34 40 44 65 9 25 33 63 52 84 62 68 77 72 262 74 160 1
168 2 255 34 50 18 144 51 210 74 176 61 345 175 435 291 22 29 69 79 103 112
67 64 147 159 147 175 0 9 55 133 86 193 9 17 22 41 29 55 104 200 110 234
109 570 l-1 265 -37 125 c-40 132 -125 322 -179 399 -81 116 -178 205 -264
242 l-46 19 6 78 c4 52 18 112 45 187 51 144 66 226 59 334 -8 134 -102 404
-167 477 -16 18 -41 55 -57 81 -31 53 -28 17 -36 523 -2 158 -4 169 -35 259
-40 114 -120 273 -170 337 -71 90 -230 257 -273 286 -23 15 -74 37 -113 49
-39 11 -102 30 -140 42 l-70 22 -16 65 c-51 210 -195 422 -336 493 -88 44
-175 76 -228 83 -28 4 -74 20 -102 35 -28 16 -58 29 -66 29 -9 0 -28 15 -42
33 -116 144 -143 170 -252 237 -129 81 -192 100 -330 100 l-92 0 -41 69 c-35
60 -52 76 -128 127 -111 73 -169 98 -298 130 -146 36 -305 31 -492 -13 -152
-36 -197 -54 -283 -113 -80 -54 -153 -132 -232 -244 -35 -49 -68 -91 -75 -93
-6 -2 -30 24 -54 59 -130 194 -213 274 -349 337 -179 82 -469 112 -645 67z
m467 -239 c94 -31 99 -34 196 -102 78 -55 157 -146 201 -230 33 -63 41 -159
41 -488 0 -355 6 -340 -93 -245 -65 62 -126 92 -247 119 -169 39 -569 36 -647
-4 -20 -11 -33 -28 -41 -56 -11 -35 -10 -48 8 -100 11 -33 20 -77 20 -97 0
-49 36 -110 76 -129 22 -10 76 -17 161 -21 221 -10 487 -92 563 -173 19 -21
56 -71 82 -112 25 -41 65 -95 87 -121 l41 -46 1 -500 c0 -275 -3 -531 -6 -570
l-7 -70 -72 38 c-39 21 -110 55 -158 74 -81 34 -96 36 -230 42 -101 5 -150 3
-165 -5 -28 -14 -44 -71 -33 -112 8 -27 7 -30 -8 -26 -9 3 -48 15 -87 26 -89
27 -363 161 -392 193 -19 20 -24 40 -29 114 -8 102 7 150 63 215 17 19 36 53
43 75 11 38 10 47 -14 99 -14 32 -26 75 -26 97 0 100 -95 167 -178 124 -33
-17 -110 -104 -187 -212 -127 -176 -175 -322 -154 -468 13 -93 39 -146 115
-225 73 -77 173 -140 367 -229 153 -71 237 -118 290 -162 56 -46 78 -54 120
-46 48 9 85 45 105 101 21 57 20 56 132 35 74 -15 209 -71 257 -107 18 -14 52
-59 77 -102 54 -91 88 -126 136 -138 l35 -9 3 -1012 c1 -557 -1 -1012 -6
-1012 -4 0 -28 60 -53 133 l-45 132 24 85 c33 117 41 337 18 463 -49 257 -133
360 -246 302 -16 -8 -52 -20 -80 -26 -28 -6 -64 -22 -80 -36 -17 -14 -30 -21
-30 -15 0 17 -196 306 -290 427 -196 252 -481 552 -732 768 l-125 109 19 36
c23 44 20 77 -16 182 -14 41 -42 129 -62 195 -72 229 -205 451 -334 552 -64
50 -169 107 -237 129 -69 21 -224 30 -262 14 -79 -32 -99 -149 -40 -224 19
-25 20 -31 9 -71 -17 -59 -6 -107 33 -148 26 -28 47 -38 106 -51 42 -10 90
-28 110 -43 38 -27 127 -130 119 -138 -2 -3 -33 15 -69 39 -108 74 -358 229
-476 296 l-113 63 0 39 c0 22 10 85 21 141 15 73 20 122 16 172 -8 100 -11
105 -66 105 -25 0 -52 -4 -58 -8 -22 -14 -91 -195 -103 -267 -6 -38 -12 -70
-13 -71 -1 -1 -18 5 -39 14 -43 19 -52 51 -38 139 28 167 66 241 198 377 48
49 80 69 198 127 119 57 145 74 164 104 30 49 31 125 1 182 l-21 42 21 88 c24
104 106 278 152 323 17 16 68 55 112 85 104 70 178 91 265 75 40 -7 66 -8 78
-1 25 13 81 82 130 161 48 76 154 170 258 230 59 34 82 41 130 43 33 1 81 -5
107 -13 63 -19 84 -8 154 85 78 103 147 162 241 207 98 47 166 58 317 53 85
-2 128 -9 187 -28z m1545 22 c157 -22 278 -94 391 -236 31 -39 70 -82 86 -94
l29 -23 82 18 c103 21 147 13 246 -46 106 -64 195 -144 247 -222 26 -39 68
-93 94 -120 l47 -48 48 8 c75 14 153 8 207 -15 54 -24 189 -116 222 -153 55
-59 154 -286 154 -351 0 -12 -16 -38 -36 -58 -58 -59 -66 -154 -20 -221 24
-34 31 -39 181 -109 124 -58 204 -126 280 -238 70 -104 114 -264 98 -353 -9
-46 -18 -32 -30 45 -6 40 -23 96 -37 124 -14 28 -26 55 -26 61 0 5 -9 21 -21
36 -17 22 -28 26 -69 26 -41 0 -52 -4 -62 -22 -20 -35 -16 -201 6 -268 14 -42
19 -99 23 -246 6 -191 5 -192 -21 -249 -28 -62 -36 -161 -14 -183 7 -7 34 -12
62 -12 40 0 55 5 76 25 25 24 30 25 76 15 71 -15 108 -41 148 -104 82 -128
110 -227 110 -381 0 -137 -3 -145 -69 -179 -55 -29 -135 -107 -135 -132 0 -7
-16 -16 -37 -19 -82 -14 -99 -18 -134 -36 -50 -25 -97 -66 -114 -99 -27 -52
27 -140 86 -140 9 0 36 9 60 19 24 11 82 26 129 35 84 14 85 14 102 -7 10 -12
18 -25 18 -30 0 -4 29 -49 64 -100 73 -107 101 -158 111 -207 4 -19 21 -91 37
-160 27 -108 31 -142 30 -256 0 -103 -5 -146 -21 -199 -12 -36 -28 -110 -37
-163 -18 -107 -54 -217 -89 -272 -60 -94 -255 -261 -341 -291 -44 -16 -79 -19
-172 -18 -130 1 -171 -9 -247 -61 -41 -28 -47 -30 -87 -20 -104 24 -204 1
-268 -62 -22 -20 -64 -75 -93 -120 -60 -92 -86 -118 -137 -141 -58 -25 -71
-28 -170 -43 -147 -21 -276 -17 -415 12 -287 60 -419 58 -674 -11 -67 -17
-120 -25 -181 -25 l-86 0 -83 67 c-162 129 -197 167 -227 245 -35 94 -94 164
-169 203 l-59 31 0 230 c0 126 1 577 2 1002 l2 772 35 0 c74 0 135 49 181 145
29 62 72 101 156 142 93 46 141 61 211 65 48 3 49 3 62 -35 24 -70 83 -113
140 -103 17 4 58 27 91 52 32 26 142 87 244 136 250 122 334 172 401 239 80
80 121 167 127 269 9 164 -59 317 -241 540 -79 97 -108 120 -156 120 -72 0
-131 -66 -131 -147 0 -21 -10 -58 -21 -83 -33 -73 -23 -136 29 -183 11 -10 30
-43 43 -73 19 -48 21 -67 16 -139 -3 -47 -11 -93 -16 -104 -18 -34 -419 -221
-473 -221 -1 0 -3 23 -3 51 0 42 -5 54 -25 71 -24 19 -34 20 -178 14 -148 -6
-156 -8 -254 -46 -56 -23 -130 -56 -164 -74 l-63 -33 -7 41 c-4 23 -7 279 -7
570 l0 529 37 18 c44 21 55 34 141 161 79 115 82 118 165 158 36 17 72 35 81
40 48 26 272 68 394 74 183 9 218 33 236 166 6 41 17 89 24 107 17 41 1 98
-37 126 -34 26 -207 40 -418 34 -250 -6 -403 -47 -498 -130 -62 -55 -94 -77
-103 -71 -13 8 -11 618 2 689 13 71 37 121 94 195 54 70 72 86 171 152 75 51
163 87 264 108 54 12 190 11 277 -1z m-5618 -2145 c260 -32 724 -159 945 -259
28 -12 104 -46 168 -74 497 -219 1011 -531 1463 -890 166 -131 180 -143 374
-317 307 -275 600 -611 796 -914 142 -220 334 -578 414 -772 196 -475 348
-1118 366 -1547 l6 -126 -80 160 c-44 88 -85 179 -92 202 -15 54 -6 93 24 93
67 1 88 95 30 140 -42 33 -86 26 -125 -19 l-33 -39 -70 126 c-176 323 -364
616 -587 916 -134 181 -130 164 -63 271 59 93 128 133 211 120 44 -6 45 -6 59
29 27 64 24 77 -20 93 -131 47 -269 -43 -336 -219 -12 -32 -24 -58 -28 -58 -3
1 -52 58 -109 128 -216 268 -380 444 -764 827 -170 168 -308 308 -308 311 0
14 63 95 111 142 131 127 337 138 484 26 25 -19 49 -34 53 -34 5 0 14 17 21
38 11 37 11 38 -31 76 -106 96 -273 132 -402 87 -100 -36 -184 -109 -268 -237
l-33 -52 -40 35 c-100 86 -638 508 -859 673 -40 30 -126 96 -191 145 -111 84
-186 140 -227 168 -23 15 -23 29 2 77 27 54 85 108 145 136 54 26 160 33 210
14 26 -10 26 -9 23 27 -3 35 -6 38 -48 51 -61 18 -157 10 -217 -19 -64 -31
-135 -103 -164 -167 -13 -29 -29 -52 -34 -52 -10 0 -66 39 -309 217 -44 32
-154 109 -245 172 -146 99 -222 150 -436 289 l-50 33 75 -6 c41 -4 126 -13
189 -21z m-289 -288 c67 -42 197 -129 447 -299 136 -93 308 -216 308 -222 0
-2 -38 -23 -85 -47 -133 -69 -170 -95 -186 -135 -17 -39 -13 -63 10 -63 9 0
49 21 90 46 97 58 177 90 248 99 l58 7 172 -129 c95 -71 183 -135 194 -143 12
-8 75 -56 140 -106 66 -49 160 -121 209 -159 80 -61 268 -208 287 -224 4 -3
-39 -7 -95 -7 -201 -2 -349 -61 -524 -212 -68 -58 -196 -207 -204 -236 -8 -30
18 -86 40 -86 10 0 61 47 115 105 194 209 325 280 536 292 208 11 395 -54 555
-194 242 -211 787 -765 989 -1008 32 -38 63 -71 67 -73 5 -2 9 -7 9 -12 0 -4
-39 7 -87 26 -128 51 -340 103 -484 119 -409 45 -761 -60 -1076 -320 -114 -94
-124 -116 -75 -165 21 -20 35 -27 54 -23 21 4 103 63 186 134 13 11 52 38 87
59 217 133 399 182 665 182 244 -1 475 -53 712 -162 179 -82 244 -128 321
-230 190 -252 417 -600 542 -830 32 -58 73 -134 93 -170 33 -60 34 -64 11 -49
-42 28 -273 116 -371 142 -208 56 -311 70 -518 71 -221 1 -310 -12 -490 -71
-147 -49 -298 -128 -474 -248 -58 -40 -62 -44 -70 -71 -9 -29 37 -84 69 -84
13 0 78 36 144 80 248 167 456 241 722 258 168 12 287 1 509 -44 162 -34 428
-141 563 -228 l59 -38 104 -211 c57 -116 104 -216 104 -220 0 -11 -7 -9 -120
32 -156 57 -257 70 -500 67 -224 -3 -278 -9 -650 -70 -118 -20 -269 -41 -335
-47 -147 -14 -392 -6 -500 16 -284 58 -559 215 -789 450 -591 604 -1104 1460
-1466 2446 -62 170 -119 341 -199 604 -62 204 -197 765 -210 875 -5 36 -18
117 -29 180 -12 63 -33 183 -47 265 -13 83 -28 161 -31 174 -7 24 -5 24 62
-14 38 -21 98 -56 134 -79z m9024 -3178 c-9 -18 -43 -71 -74 -118 -31 -47 -59
-92 -62 -101 -5 -13 -176 -150 -218 -174 -8 -5 30 38 85 96 93 97 234 265 266
316 20 33 23 20 3 -19z"/>
<path d="M4010 8335 c-335 -82 -678 -503 -706 -866 -12 -154 33 -277 133 -369
62 -57 131 -85 238 -99 117 -14 157 3 190 83 18 41 14 80 -13 131 -9 17 -15
34 -13 39 6 23 -23 106 -44 126 -12 12 -42 27 -66 34 -59 17 -62 44 -16 140
85 178 225 311 372 350 33 9 77 21 98 27 52 14 77 56 77 131 0 31 5 79 12 107
15 65 0 119 -43 155 -26 23 -39 26 -97 25 -37 0 -92 -7 -122 -14z"/>
<path d="M7014 8331 c-41 -25 -68 -82 -60 -130 3 -20 10 -74 14 -121 10 -101
28 -136 81 -149 20 -5 63 -17 95 -25 108 -28 212 -106 300 -226 49 -66 103
-172 112 -217 6 -30 4 -32 -32 -42 -70 -19 -102 -46 -113 -93 -6 -24 -20 -70
-31 -103 -25 -76 -25 -131 0 -173 31 -51 75 -65 169 -53 124 16 186 44 262
120 95 95 113 147 113 311 0 109 -4 136 -28 210 -112 339 -393 628 -678 695
-88 21 -166 19 -204 -4z"/>
<path d="M8158 6829 c-171 -19 -286 -76 -418 -209 -149 -149 -210 -270 -334
-661 -52 -164 -52 -187 -1 -246 31 -36 35 -38 96 -39 35 0 77 -6 92 -12 79
-33 138 -17 163 45 9 21 40 88 69 148 29 61 63 140 75 177 28 87 83 172 150
231 46 39 66 49 130 63 58 13 82 24 107 49 38 38 51 92 35 152 -11 39 -10 46
13 79 36 53 41 93 17 147 -32 73 -75 89 -194 76z"/>
<path d="M7328 5204 c-62 -19 -148 -98 -198 -183 -99 -168 -162 -499 -161
-841 1 -252 27 -368 97 -430 28 -24 44 -30 80 -30 44 0 50 4 119 71 84 81 88
93 76 223 -10 103 -2 185 39 421 48 270 52 282 144 430 33 53 34 68 16 180
-24 155 -83 199 -212 159z"/>
<path d="M7950 4760 c-143 -23 -244 -91 -269 -182 -19 -66 -8 -110 38 -158 27
-29 41 -53 45 -83 10 -58 30 -86 82 -108 49 -22 44 -24 179 52 60 34 60 34
190 33 177 -1 221 -15 333 -106 132 -107 164 -115 244 -62 25 16 52 24 80 24
24 0 56 8 74 19 32 19 64 74 64 110 0 52 -25 126 -60 179 -84 125 -253 209
-525 263 -122 24 -380 34 -475 19z"/>
<path d="M5939 4477 c-68 -45 -139 -293 -139 -485 0 -367 202 -717 526 -910
146 -87 381 -147 475 -122 76 21 116 111 84 186 -10 22 -19 63 -22 93 -5 64
-24 106 -55 122 -13 7 -53 18 -91 25 -95 18 -225 84 -296 149 -60 57 -98 121
-163 280 -32 78 -33 83 -33 230 0 126 4 161 22 218 17 55 19 74 11 100 -18 53
-55 85 -107 93 -25 4 -62 15 -81 25 -46 25 -90 24 -131 -4z"/>
</g>
</svg>
